<svg width="497" height="497" xmlns="http://www.w3.org/2000/svg">

 <g>
  <title>background</title>
  <rect fill="none" id="canvas_background" height="402" width="582" y="-1" x="-1"/>
 </g>
 <g>
  <title>Layer 1</title>
  <path id="svg_2" fill="#FFC261" d="m179.577,115.797c0,40.864 30.858,73.992 68.923,73.992s68.923,-33.127 68.923,-73.992c0,-51.32 -28.234,-95.536 -68.923,-115.797c-40.689,20.261 -68.923,64.477 -68.923,115.797z"/>
  <path id="svg_4" fill="#4B3F4E" d="m248.5,263.861c-8.483,0 -15.361,-6.877 -15.361,-15.361l0,-131.077c0,-8.483 6.877,-15.361 15.361,-15.361c8.483,0 15.361,6.877 15.361,15.361l0,131.077c0,8.484 -6.878,15.361 -15.361,15.361z"/>
  <path id="svg_5" fill="#ECEAEC" d="m116.399,281.269l0,190.058c0,14.179 11.494,25.673 25.673,25.673l212.856,0c14.179,0 25.673,-11.494 25.673,-25.673l0,-190.058l-264.202,0z"/>
  <path id="svg_6" fill="#D2D2D2" d="m116.399,336.548c7.211,2.588 14.876,3.938 22.529,3.938c10.187,0 20.397,-2.389 29.527,-6.912c5.859,-2.902 8.46,-2.741 13.993,-0.001c9.129,4.522 19.34,6.912 29.527,6.912c10.187,0 20.397,-2.389 29.527,-6.911c5.83,-2.888 8.49,-2.727 13.994,-0.001c9.129,4.522 19.34,6.912 29.527,6.912c10.187,0 20.397,-2.39 29.527,-6.911c5.747,-2.846 8.416,-2.764 13.995,-0.001c9.129,4.522 19.34,6.912 29.527,6.912c7.653,0 15.318,-1.35 22.529,-3.938l0,-55.279l-264.202,0l0,55.28z"/>
  <path id="svg_7" fill="#ECEAEC" d="m366.966,227.337l-236.932,0c-15.26,0 -27.63,12.371 -27.63,27.63l0,18.995c0,13.884 7.871,26.567 20.312,32.729l0,0c10.215,5.06 22.208,5.06 32.423,0l4.101,-2.031c10.215,-5.06 22.208,-5.06 32.423,0l4.101,2.031c10.215,5.06 22.208,5.06 32.423,0l4.101,-2.031c10.215,-5.06 22.208,-5.06 32.423,0l4.101,2.031c10.216,5.06 22.208,5.06 32.423,0l4.101,-2.031c10.215,-5.06 22.208,-5.06 32.423,0l4.101,2.031c10.215,5.06 22.208,5.06 32.423,0l0,0c12.441,-6.162 20.312,-18.845 20.312,-32.729l0,-18.995c0.001,-15.26 -12.369,-27.63 -27.629,-27.63z"/>
  <path id="svg_10" fill="#4B3F4E" d="m172.134,402.944c-4.143,0 -7.5,-3.358 -7.5,-7.5l0,-13.821c0,-4.142 3.357,-7.5 7.5,-7.5s7.5,3.358 7.5,7.5l0,13.821c0,4.142 -3.357,7.5 -7.5,7.5z"/>
  <path id="svg_12" fill="#4B3F4E" d="m324.865,402.944c-4.143,0 -7.5,-3.358 -7.5,-7.5l0,-13.821c0,-4.142 3.357,-7.5 7.5,-7.5s7.5,3.358 7.5,7.5l0,13.821c0,4.142 -3.357,7.5 -7.5,7.5z"/>
  <path id="svg_14" fill="#4B3F4E" d="m248.5,410.321c-9.51,0 -18.438,-3.974 -24.495,-10.903c-2.727,-3.118 -2.408,-7.856 0.71,-10.583c3.119,-2.726 7.857,-2.409 10.583,0.711c3.209,3.67 8.021,5.775 13.202,5.775c5.181,0 9.992,-2.105 13.201,-5.775c2.725,-3.119 7.464,-3.437 10.583,-0.711c3.118,2.726 3.437,7.464 0.71,10.583c-6.056,6.929 -14.984,10.903 -24.494,10.903z"/>
 </g>
</svg>